#N canvas 300 402 381 281 10;
#X obj 132 173 dac~;
#X obj 241 46 hsl 80 15 0 1 0 0 empty empty empty -2 -8 0 10 -262144
-1 -1 0 1;
#X obj 113 45 hsl 80 15 0 1 0 0 empty empty empty -2 -8 0 10 -262144
-1 -1 0 1;
#X floatatom 144 77 5 0 1 0 - - -, f 5;
#X text 133 24 gamma;
#X text 263 26 zeta;
#X floatatom 228 76 5 0 1 0 - - -, f 5;
#X obj 147 118 modelTrap~ 0.4 0.5;
#X connect 1 0 6 0;
#X connect 2 0 3 0;
#X connect 3 0 7 0;
#X connect 6 0 7 1;
#X connect 7 0 0 0;
#X connect 7 0 0 1;
