#N canvas 511 348 450 300 10;
#X obj 168 87 helloworld;
#X obj 184 52 bng 15 250 50 0 empty empty empty 17 7 0 10 -262144 -1
-1;
#X obj 286 27 bng 15 250 50 0 empty empty empty 17 7 0 10 -262144 -1
-1;
#X obj 288 69 counter 5;
#X floatatom 307 113 5 0 0 0 - - -, f 5;
#X obj 366 108 bng 15 250 50 0 empty empty empty 17 7 0 10 -262144
-1 -1;
#X msg 210 23 bound 2 6;
#X msg 391 28 3;
#X msg 323 20 list 4 20;
#X obj 62 87 pan~;
#X obj 60 18 hsl 80 15 0 1 0 0 empty empty empty -2 -8 0 10 -262144
-1 -1 0 1;
#X obj 12 49 osc~ 330;
#X obj 99 54 osc~ 440;
#X obj 61 115 dac~;
#X obj 64 272 dac~;
#X floatatom 228 140 5 0 0 0 - - -, f 5;
#X obj 277 150 hsl 80 15 0 1 0 0 empty empty empty -2 -8 0 10 -262144
-1 -1 0 1;
#X obj 227 192 harmony~ 440 0;
#X obj 44 232 model~ 0.5 0.3;
#X obj 120 166 hsl 80 15 0 1 0 0 empty empty empty -2 -8 0 10 -262144
-1 -1 0 1;
#X obj 10 164 hsl 80 15 0 1 0 0 empty empty empty -2 -8 0 10 -262144
-1 -1 0 1;
#X floatatom 33 199 5 0 1 0 - - -, f 5;
#X text 24 145 gamma;
#X text 140 145 zeta;
#X floatatom 117 198 5 0 1 0 - - -, f 5;
#X connect 1 0 0 0;
#X connect 2 0 3 0;
#X connect 3 0 4 0;
#X connect 3 1 5 0;
#X connect 6 0 3 0;
#X connect 7 0 3 2;
#X connect 8 0 3 1;
#X connect 10 0 9 2;
#X connect 11 0 9 0;
#X connect 12 0 9 1;
#X connect 15 0 17 0;
#X connect 16 0 17 1;
#X connect 18 0 14 0;
#X connect 18 0 14 1;
#X connect 19 0 24 0;
#X connect 20 0 21 0;
#X connect 21 0 18 0;
#X connect 24 0 18 1;
