#N canvas 561 393 381 281 10;
#X obj 76 229 dac~;
#X obj 167 104 hsl 80 15 0.0001 0.999 0 0 empty empty empty -2 -8 0
10 -262144 -1 -1 4000 1;
#X obj 65 105 hsl 80 15 0.0001 0.9999 0 0 empty empty empty -2 -8 0
10 -262144 -1 -1 3300 1;
#X floatatom 88 133 5 0 1 0 - - -, f 5;
#X text 77 80 gamma;
#X text 189 84 zeta;
#X floatatom 172 132 5 0 1 0 - - -, f 5;
#X obj 275 65 hsl 100 15 1 128 0 0 empty empty empty -2 -8 0 10 -262144
-1 -1 4000 1;
#X obj 275 21 notein;
#X obj 64 59 / 100;
#X obj 62 20 ctlin 1;
#X obj 90 174 modelTrap~ 0.5 0.5 69;
#X obj 166 17 ctlin 2;
#X obj 162 58 / 100;
#X floatatom 274 125 5 0 0 0 - - -, f 5;
#X connect 1 0 6 0;
#X connect 2 0 3 0;
#X connect 3 0 11 0;
#X connect 6 0 11 1;
#X connect 7 0 14 0;
#X connect 8 0 7 0;
#X connect 9 0 2 0;
#X connect 10 0 9 0;
#X connect 11 0 0 0;
#X connect 11 0 0 1;
#X connect 12 0 13 0;
#X connect 13 0 1 0;
#X connect 14 0 11 2;
